<?xml version="1.0" standalone="no"?>
<!DOCTYPE svg PUBLIC "-//W3C//DTD SVG 20010904//EN"
 "http://www.w3.org/TR/2001/REC-SVG-20010904/DTD/svg10.dtd">
<svg version="1.0" xmlns="http://www.w3.org/2000/svg"
 width="518.000000pt" height="481.000000pt" viewBox="0 0 518.000000 481.000000"
 preserveAspectRatio="xMidYMid meet">

<g transform="translate(0.000000,481.000000) scale(0.100000,-0.100000)"
fill="#000000" stroke="none">
<path d="M714 4775 c-94 -17 -134 -30 -225 -76 -371 -185 -557 -634 -421
-1017 72 -202 177 -320 442 -499 266 -178 406 -298 591 -504 284 -317 494
-736 598 -1194 28 -125 57 -334 81 -575 23 -229 43 -325 94 -434 108 -235 300
-392 541 -443 92 -19 271 -19 360 1 261 59 457 231 559 489 35 87 53 183 71
372 51 520 109 775 251 1105 133 307 307 563 544 800 155 155 336 301 485 390
76 45 190 134 251 194 104 105 165 215 204 370 43 171 17 403 -62 561 -86 171
-241 322 -410 399 -115 53 -205 71 -343 71 -200 -1 -298 -39 -635 -244 -74
-45 -168 -98 -207 -118 l-73 -36 0 -783 c0 -860 1 -852 -62 -1001 -156 -377
-564 -582 -957 -482 -143 36 -262 106 -379 221 -104 103 -171 220 -214 373
-22 78 -22 93 -25 740 -2 363 -3 722 -3 797 l0 138 -62 31 c-35 17 -137 76
-227 131 -91 55 -199 117 -240 137 -184 92 -348 119 -527 86z"/>
<path d="M2467 4354 c-188 -45 -335 -187 -394 -379 -17 -55 -18 -104 -18 -605
0 -535 0 -546 22 -615 27 -85 85 -178 150 -241 86 -82 246 -144 373 -144 64 0
191 34 253 67 71 38 176 146 214 218 62 119 63 128 63 724 0 539 0 540 -23
614 -86 268 -367 427 -640 361z"/>
</g>
</svg>
