<?xml version="1.0" standalone="no"?>
<!DOCTYPE svg PUBLIC "-//W3C//DTD SVG 20010904//EN"
 "http://www.w3.org/TR/2001/REC-SVG-20010904/DTD/svg10.dtd">
<svg version="1.0" xmlns="http://www.w3.org/2000/svg"
 width="1024.000000pt" height="1133.000000pt" viewBox="0 0 1024.000000 1133.000000"
 preserveAspectRatio="xMidYMid meet">

<g transform="translate(0.000000,1133.000000) scale(0.100000,-0.100000)"
fill="#000000" stroke="none">
<path d="M1992 10358 c-357 -535 -951 -1426 -1320 -1979 -370 -554 -672 -1012
-672 -1018 0 -8 328 -11 1225 -11 674 0 1225 -2 1225 -5 0 -4 -228 -348 -1185
-1790 -1100 -1657 -1245 -1876 -1245 -1882 0 -3 545 -3 1211 0 666 4 1209 3
1207 -1 -3 -7 -135 -207 -513 -779 -110 -167 -275 -417 -367 -555 -91 -139
-277 -422 -414 -628 -136 -206 -288 -438 -339 -515 -106 -161 -398 -604 -624
-945 -86 -129 -157 -238 -159 -242 -2 -5 551 -8 1230 -8 l1233 0 95 143 c239
360 1298 1954 1875 2822 350 528 640 966 642 972 4 10 -246 13 -1216 15
l-1220 3 398 600 c219 330 662 998 986 1485 893 1344 1055 1589 1055 1595 0 3
-553 5 -1229 5 l-1229 0 1222 1833 c672 1007 1226 1838 1230 1845 6 9 -242 12
-1223 12 l-1231 0 -648 -972z"/>
<path d="M5168 11288 c15 -24 568 -854 1229 -1846 l1203 -1802 -1230 0 c-677
0 -1230 -2 -1230 -5 0 -4 413 -628 1425 -2150 927 -1395 1010 -1519 1013
-1527 2 -5 -546 -8 -1217 -8 -672 0 -1221 -3 -1221 -6 0 -7 10 -23 1042 -1574
415 -624 938 -1413 1164 -1752 l409 -618 1233 0 c677 0 1232 2 1232 4 0 2 -87
134 -192 294 -106 161 -317 479 -468 709 -368 557 -643 975 -843 1278 -448
677 -895 1357 -910 1382 -6 10 248 11 1203 6 665 -3 1210 -3 1210 0 0 8 -222
343 -1883 2845 -301 453 -547 825 -547 828 0 2 551 4 1225 4 986 0 1225 2
1225 13 0 7 -593 901 -1318 1987 l-1319 1975 -1231 3 -1232 2 28 -42z"/>
</g>
</svg>
