<?xml version="1.0" standalone="no"?>
<!DOCTYPE svg PUBLIC "-//W3C//DTD SVG 20010904//EN"
 "http://www.w3.org/TR/2001/REC-SVG-20010904/DTD/svg10.dtd">
<svg version="1.0" xmlns="http://www.w3.org/2000/svg"
 width="3em" height="3em" viewBox="0 0 842.000000 949.000000"
 preserveAspectRatio="xMidYMid meet">

<g transform="translate(0.000000,949.000000) scale(0.100000,-0.100000)"
fill="#000000" stroke="none">
<path d="M3330 8963 c-492 -288 -1016 -596 -1165 -683 -505 -295 -1539 -902
-1683 -987 -79 -47 -140 -89 -135 -93 4 -5 397 -235 873 -512 476 -278 1346
-785 1933 -1127 592 -345 1075 -620 1082 -617 8 3 394 224 857 492 1578 912
2043 1180 2545 1470 276 159 502 291 503 294 0 4 -3804 2228 -3894 2277 -19
10 -114 -43 -916 -514z"/>
<path d="M7 6848 c-4 -83 -7 -1103 -7 -2266 0 -1699 2 -2113 13 -2109 7 2 426
247 932 544 506 296 1373 804 1927 1128 554 325 1008 593 1008 596 0 4 -84 56
-187 117 -503 294 -3674 2142 -3677 2142 -1 0 -6 -68 -9 -152z"/>
<path d="M8355 6974 c-22 -13 -888 -518 -1925 -1122 -1036 -605 -1885 -1103
-1887 -1108 -1 -5 264 -165 590 -356 325 -190 1192 -698 1926 -1128 734 -430
1341 -784 1348 -787 11 -4 13 285 13 1668 0 1668 -8 2860 -19 2858 -3 -1 -24
-12 -46 -25z"/>
<path d="M3400 4074 c-448 -262 -1317 -769 -1930 -1126 -613 -357 -1119 -653
-1124 -658 -10 -10 -57 18 539 -330 275 -161 640 -375 810 -475 171 -100 402
-236 515 -302 113 -66 610 -358 1105 -648 495 -291 905 -528 910 -528 13 0
3915 2276 3915 2283 -1 3 -224 134 -498 292 -273 157 -1149 663 -1947 1124
-797 460 -1456 839 -1465 840 -8 2 -382 -211 -830 -472z"/>
</g>
</svg>
