<?xml version="1.0" standalone="no"?>
<!DOCTYPE svg PUBLIC "-//W3C//DTD SVG 20010904//EN"
 "http://www.w3.org/TR/2001/REC-SVG-20010904/DTD/svg10.dtd">
<svg version="1.0" xmlns="http://www.w3.org/2000/svg"
 width="1207.000000pt" height="676.000000pt" viewBox="0 0 1207.000000 676.000000"
 preserveAspectRatio="xMidYMid meet">

<g transform="translate(0.000000,676.000000) scale(0.100000,-0.100000)"
fill="#000000" stroke="none">
<path d="M5976 6602 c-27 -48 -97 -168 -154 -267 -58 -99 -137 -236 -177 -305
-40 -69 -197 -341 -349 -604 -305 -528 -314 -544 -311 -566 2 -8 40 -78 85
-155 46 -77 140 -239 210 -360 70 -121 193 -335 274 -475 82 -140 216 -372
299 -515 82 -143 156 -268 163 -278 14 -21 27 1 339 543 88 151 180 311 205
355 26 44 124 213 217 375 94 162 200 345 236 407 l65 111 -20 39 c-30 56
-1019 1767 -1027 1775 -3 3 -28 -33 -55 -80z"/>
<path d="M8178 6613 c-24 -43 -111 -193 -193 -333 -81 -140 -182 -313 -223
-385 -42 -71 -131 -227 -200 -345 -68 -118 -185 -320 -258 -447 l-134 -233 24
-37 c13 -21 90 -153 171 -293 81 -140 173 -300 205 -355 360 -621 524 -905
735 -1270 136 -236 269 -466 295 -510 26 -44 90 -154 142 -245 52 -91 160
-277 240 -415 80 -137 189 -326 243 -420 54 -93 163 -282 243 -420 80 -137
201 -347 269 -465 69 -118 145 -250 170 -292 l45 -78 1049 0 c577 0 1049 2
1049 5 0 3 -26 49 -57 103 -31 53 -95 165 -143 247 -47 83 -134 231 -192 330
-108 186 -194 334 -533 925 -109 189 -222 385 -252 434 -30 49 -190 324 -355
610 -165 287 -331 573 -368 636 -37 63 -119 205 -182 315 -153 266 -584 1008
-738 1270 -68 116 -162 280 -210 365 -48 85 -185 324 -305 530 -119 206 -278
481 -352 610 -75 129 -137 236 -138 238 -1 1 -22 -32 -47 -75z"/>
<path d="M3688 6443 c-75 -131 -200 -348 -278 -483 -78 -135 -233 -402 -345
-595 -183 -317 -339 -587 -1108 -1915 -132 -228 -287 -496 -345 -595 -58 -99
-172 -295 -252 -435 -197 -342 -333 -577 -575 -995 -573 -989 -775 -1339 -775
-1347 0 -11 2015 -10 2065 2 22 5 43 15 48 22 4 7 87 150 183 318 97 168 258
447 359 620 379 654 590 1018 830 1435 136 237 260 450 275 475 15 25 121 207
236 405 114 198 239 414 277 480 38 66 111 192 162 280 51 88 132 228 180 310
162 279 255 443 255 450 0 7 -284 501 -615 1070 -105 182 -245 421 -309 533
-65 111 -121 202 -125 202 -3 0 -68 -107 -143 -237z"/>
<path d="M6920 4437 c-112 -193 -259 -446 -326 -562 -181 -313 -484 -836 -504
-871 -17 -30 -17 -33 0 -60 9 -16 76 -130 147 -254 72 -124 231 -398 354 -610
332 -574 405 -701 636 -1100 115 -201 239 -414 275 -475 36 -60 107 -183 158
-272 l94 -163 1048 0 c576 0 1048 3 1048 6 0 10 5 0 -605 1054 -362 624 -812
1401 -993 1715 -101 176 -215 372 -252 435 -37 63 -102 176 -145 250 -112 195
-506 875 -584 1010 -37 63 -80 138 -96 165 -15 28 -33 58 -40 67 -10 15 -41
-33 -215 -335z"/>
<path d="M4878 4703 c-24 -43 -129 -224 -233 -403 -267 -461 -478 -827 -735
-1270 -122 -212 -286 -495 -365 -630 -78 -135 -226 -391 -330 -570 -103 -179
-267 -462 -364 -630 -535 -922 -643 -1112 -636 -1118 8 -9 1993 -15 2051 -7
41 6 42 7 115 133 40 70 159 276 264 457 105 182 279 481 385 665 107 184 255
441 330 570 76 129 181 312 235 405 54 94 162 281 241 416 79 136 144 249 144
252 0 6 -66 122 -235 412 -171 294 -379 652 -610 1053 -108 188 -200 342 -205
342 -4 0 -28 -35 -52 -77z"/>
<path d="M5994 2837 c-17 -29 -115 -198 -219 -377 -103 -179 -262 -453 -353
-610 -91 -157 -220 -379 -287 -495 -67 -115 -224 -388 -350 -605 -125 -217
-264 -456 -307 -530 -74 -127 -77 -135 -57 -142 11 -5 745 -7 1629 -6 l1609 3
-138 240 c-75 132 -263 456 -416 720 -153 264 -327 563 -385 665 -59 102 -216
374 -350 605 -134 231 -263 455 -288 498 -24 42 -47 79 -51 82 -4 2 -21 -19
-37 -48z"/>
</g>
</svg>
