<?xml version="1.0" standalone="no"?>
<!DOCTYPE svg PUBLIC "-//W3C//DTD SVG 20010904//EN"
 "http://www.w3.org/TR/2001/REC-SVG-20010904/DTD/svg10.dtd">
<svg version="1.0" xmlns="http://www.w3.org/2000/svg"
 width="134.000000pt" height="134.000000pt" viewBox="0 0 134.000000 134.000000"
 preserveAspectRatio="xMidYMid meet">

<g transform="translate(0.000000,134.000000) scale(0.100000,-0.100000)"
fill="#000000" stroke="none">
<path d="M335 1000 l-330 -330 333 -333 332 -332 332 332 333 333 -330 330
c-181 181 -332 330 -335 330 -3 0 -154 -149 -335 -330z m118 -336 c65 -79 121
-144 125 -143 4 0 61 65 126 145 l119 144 69 0 c38 0 68 -4 66 -8 -1 -5 -73
-93 -158 -195 l-154 -187 -71 0 -70 1 -91 112 c-51 62 -113 138 -139 170 l-48
58 23 24 c16 17 34 25 54 24 27 0 45 -17 149 -145z m230 27 c-54 -66 -101
-120 -104 -120 -5 -1 -150 170 -192 227 -7 9 32 12 192 12 l201 0 -97 -119z
m414 95 l27 -24 -48 -58 c-27 -33 -89 -109 -140 -171 l-91 -112 -73 -1 -74 0
19 24 c10 14 81 101 158 195 153 186 166 195 222 147z"/>
</g>
</svg>
